<svg width="28" height="28" viewBox="0 0 28 28" fill="none" xmlns="http://www.w3.org/2000/svg">
<path fill-rule="evenodd" clip-rule="evenodd" d="M21.4299 8.00277C20.1338 8.00277 18.9362 7.31132 18.2882 6.18888C16.8918 3.77036 13.401 3.77038 12.0047 6.18889C11.3566 7.31132 10.159 8.00277 8.86296 8.00277C6.07033 8.00277 4.32493 11.0259 5.72125 13.4444C6.36928 14.5668 6.36928 15.9497 5.72124 17.0721C4.3249 19.4907 6.07032 22.5138 8.863 22.5138C10.1591 22.5138 11.3567 23.2053 12.0047 24.3277C13.4011 26.7462 16.8919 26.7462 18.2882 24.3277C18.9363 23.2053 20.1339 22.5138 21.43 22.5138C24.2226 22.5138 25.968 19.4907 24.5717 17.0722C23.9236 15.9498 23.9237 14.5669 24.5717 13.4445C25.968 11.0259 24.2226 8.00277 21.4299 8.00277ZM12.677 16.1868C12.5551 15.8625 12.4982 15.5174 12.5096 15.1711C12.5211 14.8248 12.6007 14.4841 12.7438 14.1686C12.8869 13.8531 13.0907 13.5688 13.3437 13.332C13.5966 13.0953 13.8938 12.9107 14.2181 12.7887C14.5424 12.6668 14.8875 12.6099 15.2338 12.6214C15.5801 12.6328 15.9207 12.7124 16.2363 12.8555C16.5518 12.9986 16.8361 13.2024 17.0729 13.4554C17.3096 13.7084 17.4942 14.0055 17.6162 14.3298C17.7381 14.6541 17.795 14.9993 17.7835 15.3455C17.7721 15.6918 17.6925 16.0325 17.5494 16.348C17.4063 16.6636 17.2025 16.9478 16.9495 17.1846C16.6965 17.4214 16.3994 17.606 16.0751 17.7279C15.7508 17.8498 15.4056 17.9067 15.0593 17.8952C14.7131 17.8838 14.3724 17.8042 14.0569 17.6611C13.7413 17.518 13.4571 17.3142 13.2203 17.0612C12.9835 16.8083 12.7989 16.5111 12.677 16.1868Z" fill="white"/>
</svg>
