<svg width="19" height="21" viewBox="0 0 19 21" fill="none" xmlns="http://www.w3.org/2000/svg">
<path d="M15.1667 0.5C14.4303 0.5 13.8333 1.09695 13.8333 1.83333V19.1667C13.8333 19.903 14.4303 20.5 15.1667 20.5H17.1667C17.903 20.5 18.5 19.903 18.5 19.1667V1.83333C18.5 1.09695 17.903 0.5 17.1667 0.5H15.1667Z" fill="white"/>
<path d="M7.16667 7.83333C7.16667 7.09695 7.76362 6.5 8.5 6.5H10.5C11.2364 6.5 11.8333 7.09695 11.8333 7.83333V19.1667C11.8333 19.903 11.2364 20.5 10.5 20.5H8.5C7.76362 20.5 7.16667 19.903 7.16667 19.1667V7.83333Z" fill="white"/>
<path d="M0.5 13.8333C0.5 13.097 1.09695 12.5 1.83333 12.5H3.83333C4.56971 12.5 5.16667 13.097 5.16667 13.8333V19.1667C5.16667 19.903 4.56971 20.5 3.83333 20.5H1.83333C1.09695 20.5 0.5 19.903 0.5 19.1667V13.8333Z" fill="white"/>
</svg>
